<svg xmlns="http://www.w3.org/2000/svg" width="87.906" height="31.806" viewBox="0 0 87.906 31.806">
  <g id="layer1" transform="translate(-55.5 -1335.623)">
    <path id="path3082" d="M249.14,1554.6v-13.767h14.577l1.564,2.039,1.616-2.039h52.91v12.818a6.111,6.111,0,0,1-2.984.949h-29.3l-1.763-2.17v2.17h-5.778v-3.7a4.848,4.848,0,0,1-2.5.517h-1.967v3.187h-8.748l-1.562-2.083-1.586,2.083Z" transform="translate(-176.618 -187.169)" fill="#ececec"/>
    <path id="path3080" d="M55.5,1343.287l3.287-7.663h5.685l1.865,4.293v-4.293H73.4l1.111,3.1,1.077-3.1h31.722v1.56a6.844,6.844,0,0,1,4.408-1.56l10.293.036,1.833,4.237v-4.272h5.914l1.628,2.433v-2.433h5.968v13.767h-5.968l-1.56-2.441v2.441h-8.689l-.874-2.17H117.93l-.86,2.17h-5.892a5.825,5.825,0,0,1-3.866-1.528v1.528H98.428l-1.763-2.17v2.17H63.629l-.873-2.17H60.428l-.867,2.17H55.5Z" transform="translate(0 0)" fill="#ececec"/>
    <g id="Gruppe_25588" data-name="Gruppe 25588" transform="translate(55.517 1337.318)">
      <path id="path3046" d="M60.126,1354.93l-4.434,10.308h2.886l.818-2.064h4.756l.814,2.064h2.95l-4.429-10.308Zm1.64,2.4,1.45,3.607h-2.9l1.454-3.607Z" transform="translate(-55.693 -1354.928)" fill="#35383f"/>
      <path id="path3048" d="M198.223,1365.214v-10.308l4.1.015,2.386,6.646,2.329-6.661h4.069v10.308h-2.577v-7.6l-2.732,7.6h-2.26l-2.739-7.6v7.6Z" transform="translate(-185.694 -1354.906)" fill="#35383f"/>
      <path id="path3050" d="M364.861,1365.214v-10.308h8.409v2.306h-5.805v1.763h5.67v2.17h-5.67v1.831h5.805v2.238Z" transform="translate(-337.683 -1354.906)" fill="#35383f"/>
      <path id="path3052" d="M477.5,1354.93v10.308h2.577v-3.662h1.085l3.09,3.662H487.4l-3.391-3.8a3.139,3.139,0,0,0,2.827-3.166,3.334,3.334,0,0,0-3.6-3.344H477.5Zm2.577,2.306h2.946a1.183,1.183,0,0,1,1.221,1.085,1.165,1.165,0,0,1-1.183,1.085h-2.984Z" transform="translate(-440.418 -1354.928)" fill="#35383f"/>
      <path id="path3054" d="M598.318,1365.214h-2.631v-10.308h2.631Z" transform="translate(-548.218 -1354.906)" fill="#35383f"/>
      <path id="path3056" d="M644.877,1365.214h-.568c-2.748,0-4.417-2.165-4.417-5.112,0-3.019,1.65-5.2,5.12-5.2h2.848v2.441h-2.952a2.48,2.48,0,0,0-2.405,2.781,2.524,2.524,0,0,0,2.781,2.835h.678Z" transform="translate(-588.538 -1354.906)" fill="#35383f"/>
      <path id="path3058" d="M714.385,1354.93l-4.434,10.308h2.886l.818-2.064h4.756l.814,2.064h2.95l-4.429-10.308Zm1.64,2.4,1.45,3.607h-2.9Z" transform="translate(-652.438 -1354.928)" fill="#35383f"/>
      <path id="path3060" d="M852.433,1365.214v-10.308h3.276l4.184,6.477v-6.477h2.577v10.308H859.3l-4.289-6.646v6.646Z" transform="translate(-782.394 -1354.906)" fill="#35383f"/>
      <path id="path3062" d="M269.2,1570.434v-10.308h8.409v2.306H271.8v1.763h5.67v2.17H271.8v1.831h5.805v2.238Z" transform="translate(-250.43 -1542.086)" fill="#35383f"/>
      <path id="path3064" d="M737.947,1570.434v-10.308h8.409v2.306h-5.805v1.763h5.642v2.17h-5.642v1.831h5.805v2.238Z" transform="translate(-677.972 -1542.086)" fill="#35383f"/>
      <path id="path3066" d="M367.562,1570.434l4.094-5.091-4.192-5.218h3.247l2.5,3.226,2.505-3.226h3.12l-4.137,5.154,4.1,5.154h-3.246l-2.424-3.175-2.365,3.175Z" transform="translate(-340.058 -1542.086)" fill="#35383f"/>
      <path id="path3068" d="M499.869,1560.14v10.308h2.645v-3.255h2.713c2.3,0,4.035-1.218,4.035-3.586a3.392,3.392,0,0,0-3.7-3.467Zm2.645,2.331h2.857a1.163,1.163,0,0,1,1.272,1.187,1.189,1.189,0,0,1-1.28,1.187h-2.848Z" transform="translate(-460.823 -1542.099)" fill="#35383f"/>
      <path id="path3072" d="M619.448,1560.12v10.308h2.577v-3.662h1.085l3.09,3.662h3.149l-3.391-3.8a3.139,3.139,0,0,0,2.827-3.166,3.334,3.334,0,0,0-3.6-3.344Zm2.577,2.306h2.946a1.183,1.183,0,0,1,1.221,1.085,1.165,1.165,0,0,1-1.183,1.085h-2.984Z" transform="translate(-569.89 -1542.08)" fill="#35383f"/>
      <path id="path3074" d="M843.792,1570.434V1568.2h5.157c.763,0,1.094-.412,1.094-.865,0-.433-.329-.871-1.094-.871h-2.331a2.882,2.882,0,0,1-3.154-3.087c0-1.653,1.033-3.247,4.044-3.247h5.018l-1.085,2.319H847.1c-.83,0-1.085.435-1.085.851a.9.9,0,0,0,.949.9h2.441c2.258,0,3.238,1.281,3.238,2.959a3.091,3.091,0,0,1-3.361,3.281Z" transform="translate(-774.214 -1542.085)" fill="#35383f"/>
      <path id="path3076" d="M951.389,1570.434V1568.2h5.158c.763,0,1.094-.412,1.094-.865,0-.433-.329-.871-1.094-.871h-2.331a2.882,2.882,0,0,1-3.154-3.087c0-1.653,1.033-3.247,4.044-3.247h5.018l-1.085,2.319H954.7c-.83,0-1.085.435-1.085.851a.9.9,0,0,0,.949.9H957c2.258,0,3.238,1.281,3.238,2.959a3.091,3.091,0,0,1-3.361,3.281Z" transform="translate(-872.353 -1542.085)" fill="#35383f"/>
    </g>
  </g>
</svg>