<svg xmlns="http://www.w3.org/2000/svg" width="96.628" height="24.6" viewBox="0 0 96.628 24.6">
  <g id="Die_Post__ch__Logo_2019" data-name="Die_Post_(ch)_Logo_2019" transform="translate(-12.256 -6.898)">
    <path id="path4" d="M161.878,187.315l1.306-6.128H88.835l-1.3,6.128Z" transform="translate(-75.275 -155.818)" fill="#ececec" fill-rule="evenodd"/>
    <path id="path6" d="M198.549,104.513h-2.765l-2.749,12.78H195.8Z" transform="translate(-166.008 -89.88)" fill="#35383f" fill-rule="evenodd"/>
    <path id="path8" d="M237.359,104.513h-7.731l-2.731,12.78h7.816l.5-2.319h-5.052l.687-3.179h4.381l.5-2.3h-4.381l.567-2.662h4.947Z" transform="translate(-195.129 -89.88)" fill="#35383f" fill-rule="evenodd"/>
    <path id="path10" d="M116.839,111.128c-.326,1.511-1.237,3.351-3.23,3.745a6.74,6.74,0,0,1-1.116.086h-1.306l1.718-8.075h1.185a6.615,6.615,0,0,1,1,.069c1.821.309,2.2,2.164,1.751,4.175m-1.072-6.532a14.453,14.453,0,0,0-1.667-.086h-3.486l-2.732,12.78h4.605a10.608,10.608,0,0,0,1.289-.067,6.671,6.671,0,0,0,5.873-5.722c.722-3.71-.583-6.425-3.883-6.906" transform="translate(-92.777 -89.878)" fill="#35383f" fill-rule="evenodd"/>
    <path id="path12" d="M567.035,104.513h-9.687l-.516,2.369H560.3l-2.232,10.411h2.765l2.234-10.411h3.453Z" transform="translate(-478.867 -89.88)" fill="#35383f" fill-rule="evenodd"/>
    <path id="path14" d="M408.769,110.077c-.447,2.062-1.288,4.209-3.624,4.209-2.252,0-2.56-2.113-2.1-4.209.445-2.061,1.288-4.208,3.623-4.208,2.252,0,2.562,2.111,2.1,4.208m-1.9-6.549c-4.433,0-6.117,3.006-6.823,6.528-.721,3.521.775,6.527,4.812,6.527,4.432,0,6.116-3.006,6.82-6.527.721-3.522-.773-6.528-4.809-6.528" transform="translate(-343.888 -89.033)" fill="#35383f" fill-rule="evenodd"/>
    <path id="path16" d="M483.388,108.272a3.524,3.524,0,0,0,1.8,2.921l1.461,1.082a4.975,4.975,0,0,1,.773.653,1.035,1.035,0,0,1,.343.738,1.091,1.091,0,0,1-.533.962,4,4,0,0,1-2.044.379,9.784,9.784,0,0,1-2.749-.465l-.824,2.337a12.679,12.679,0,0,0,3.745.515,7.966,7.966,0,0,0,3.23-.55,3.393,3.393,0,0,0,2.267-3.212,2.9,2.9,0,0,0-.652-1.872,7.775,7.775,0,0,0-1.374-1.255l-1.323-1c-.67-.5-1.17-.876-1.17-1.461a1.125,1.125,0,0,1,1.083-1.116,12.125,12.125,0,0,1,1.478-.052H491l.516-2.37h-2.336a21.464,21.464,0,0,0-2.3.086,3.706,3.706,0,0,0-3.488,3.676" transform="translate(-414.185 -89.877)" fill="#35383f" fill-rule="evenodd"/>
    <path id="path18" d="M328.416,109.012a2.306,2.306,0,0,1-1.821,1.942,5.056,5.056,0,0,1-.876.085H324.6l.893-4.174h1.2a2.576,2.576,0,0,1,.808.1c.687.224,1.1.894.91,2.045M328,104.6a8.61,8.61,0,0,0-1.254-.086h-3.486l-2.749,12.78h2.749l.841-3.9h1.6a6.49,6.49,0,0,0,1.925-.241,5.075,5.075,0,0,0,3.538-4A3.612,3.612,0,0,0,328,104.6" transform="translate(-275.638 -89.878)" fill="#35383f" fill-rule="evenodd"/>
    <path id="path22" d="M648.4,56.989s1.632-7.682,1.64-7.725H639.657c0,.027-2.158,10.076-2.167,10.118h2.571l1.655-7.724h5.245s-1.647,7.682-1.657,7.724h7.788l-1.034,4.831h-7.747l-1.547,7.226h-5.87c-.005.028-.5,2.385-.51,2.425h8.441c.005-.027,1.555-7.242,1.555-7.242H654.1l2.067-9.633Z" transform="translate(-547.28 -42.366)" fill="#ececec" fill-rule="evenodd"/>
  </g>
</svg>