<svg xmlns="http://www.w3.org/2000/svg" width="138.864" height="23.368" viewBox="0 0 138.864 23.368">
  <g id="Gruppe_25585" data-name="Gruppe 25585" transform="translate(-1255.013 -7878.648)">
    <path id="path24" d="M123.454-13.8l1.438-6.808H7.555L6.116-13.8H123.454" transform="translate(1248.897 7915.815)" fill="#ececec"/>
    <path id="path26" d="M169.156-34.245s1.573-7.213,1.6-7.281h-10c0,.046-2.067,9.572-2.067,9.617h2.562c.022,0,1.572-7.19,1.572-7.19h4.853s-1.528,7.213-1.572,7.258h7.392l-.966,4.448h-7.348c0,.045-1.482,6.786-1.482,6.786h-5.549c0,.022-.495,2.426-.517,2.449h8.178c0-.022,1.462-6.808,1.462-6.808h7.347c0-.022,1.933-9.235,1.933-9.279h-7.393" transform="translate(1217.327 7920.174)" fill="#ececec"/>
    <path id="path28" d="M120.47-31.46a1.726,1.726,0,0,1,1.775,1.91,5.275,5.275,0,0,1-.045.584h-4.562A3.087,3.087,0,0,1,120.47-31.46Zm2.269,8.943.585-2.674a9.393,9.393,0,0,1-3.19.606c-1.439,0-2.7-.494-2.764-2.224h7.415a8.873,8.873,0,0,0,.426-2.561,4.179,4.179,0,0,0-4.516-4.495c-4,0-6.426,3.282-6.426,6.9,0,3.1,2.067,4.921,5.28,4.921a10.429,10.429,0,0,0,3.19-.472h0Zm-12.2-2.27a2.155,2.155,0,0,1-2.449-2.449c0-2.134,1.348-3.91,3.483-3.91a6.421,6.421,0,0,1,2.2.495l.539-2.562a8.91,8.91,0,0,0-2.944-.539,6.437,6.437,0,0,0-6.539,6.674c0,3.325,2.045,4.9,4.988,4.9a6.547,6.547,0,0,0,2.427-.426l.584-2.63a6.494,6.494,0,0,1-2.292.45Zm-15.526,2.4,1.236-5.685c.494-2.292,1.618-3.078,2.786-3.078,1.506,0,1.685,1.124,1.393,2.4l-1.348,6.359h3.213l1.415-6.516c.7-3.258-.808-4.966-3.167-4.966A4.9,4.9,0,0,0,96.9-32.2l.292-1.325H94.2L91.8-22.383ZM83.464-25.6c0-1.123.988-1.753,2.628-1.753a13.021,13.021,0,0,1,1.641.113l-.135.629a2.9,2.9,0,0,1-2.74,2.225c-.922,0-1.393-.45-1.393-1.214h0Zm3.1-8.2a13.47,13.47,0,0,0-3.483.495l-.539,2.584a13.485,13.485,0,0,1,3.393-.585c1.685,0,2.292.517,2.292,1.393a2.111,2.111,0,0,1-.045.516l-.046.225c-.809-.09-1.572-.157-1.933-.157-3.19,0-5.751,1.235-5.751,4.157,0,1.909,1.482,3.056,3.414,3.056a4.25,4.25,0,0,0,3.3-1.438l-.247,1.168h2.853l1.393-6.381a6.286,6.286,0,0,0,.157-1.438c0-1.911-1.055-3.6-4.762-3.6ZM70.994-22.383l1.235-5.685c.495-2.292,1.617-3.078,2.787-3.078,1.506,0,1.685,1.124,1.393,2.4l-1.349,6.359h3.213L79.688-28.9c.7-3.258-.808-4.966-3.167-4.966A4.9,4.9,0,0,0,72.881-32.2l.292-1.325H70.184l-2.4,11.144h3.214ZM65.242-36.606a1.641,1.641,0,0,0,1.662,1.8,1.9,1.9,0,0,0,1.954-1.8A1.64,1.64,0,0,0,67.2-38.4a1.9,1.9,0,0,0-1.954,1.8Zm-.45,3.079-2.4,11.144h3.191l2.4-11.144ZM55.714-22.383,56.972-28.2h4.854l.585-2.853H57.579l.742-3.573h5.1l.629-2.854H55.625l-3.191,15.1Zm-3.168-8.7.517-2.449H49.626l.673-3.1-3.348.741-2.09,9.526c-.583,2.7.9,4.179,3.595,4.179a7.952,7.952,0,0,0,2.181-.336l.539-2.45a7.874,7.874,0,0,1-1.8.27c-.922,0-1.574-.314-1.348-1.438l1.056-4.943h3.459ZM40.368-25.664c0,.9-1.1,1.056-2.022,1.056a11.35,11.35,0,0,1-3.167-.539l-.54,2.516a15.392,15.392,0,0,0,3.505.449c2.875,0,5.213-1.078,5.213-3.774,0-3.483-4.179-2.876-4.179-4.426,0-.7.674-.944,1.729-.944a12.41,12.41,0,0,1,2.9.539l.539-2.538a12.2,12.2,0,0,0-3.146-.427c-3.122,0-5.01,1.393-5.01,3.708,0,3.392,4.178,2.831,4.178,4.381h0ZM28.28-22.046c3.528,0,5.909-2.562,6.449-5.909.562-3.348-1.3-5.91-4.831-5.91s-5.909,2.562-6.448,5.91c-.562,3.348,1.3,5.909,4.831,5.909Zm.293-2.584c-1.281,0-2.292-1.011-1.821-3.325s1.6-3.325,2.876-3.325,2.292,1.033,1.8,3.325c-.472,2.292-1.572,3.325-2.853,3.325Zm-13.55-2.36H16.44c4.516,0,7.033-2.224,7.033-5.931,0-2.764-1.956-4.562-5.3-4.562H13.991L10.8-22.383h3.235Zm.562-2.764,1.056-4.965H17.99c1.483,0,2.2.607,2.2,2.022,0,1.82-1.145,2.943-3.257,2.943H15.585" transform="translate(1247.921 7919.523)" fill="#35383f"/>
  </g>
</svg>