<svg xmlns="http://www.w3.org/2000/svg" width="87.826" height="28.476" viewBox="0 0 87.826 28.476">
  <g id="Gruppe_25587" data-name="Gruppe 25587" transform="translate(-376 -809.035)">
    <path id="Shape" d="M25.1,21.119a1.278,1.278,0,0,1-.586,1L13.191,28.671a1.306,1.306,0,0,1-1.172,0L.7,22.123a1.276,1.276,0,0,1-.586-1V8.024a1.278,1.278,0,0,1,.586-1L12.018.473a1.306,1.306,0,0,1,1.172,0L24.51,7.02a1.276,1.276,0,0,1,.586,1ZM87.939,8.966H77.807V11.39h3.639V21.752h2.868V11.39h3.624Zm-46.033,0H31.758V11.39H35.4V21.752h2.868V11.39H41.9Zm29.332-.4a4.616,4.616,0,0,0-4.966,4.988v8.2h2.837V13.491a2.078,2.078,0,0,1,2.159-2.27,2.163,2.163,0,0,1,2.144,2.27v8.262h2.837v-8.2a4.643,4.643,0,0,0-5.012-4.988Zm-10.7.4V21.752h2.837V8.966Zm-9.623,5.065L51,14.6l2.668,7.15h1.157L58.453,8.966H55.661l-1.727,6.718-.108.726-.139-.726L51.374,8.966h-.925l-2.313,6.718L48,16.409l-.092-.726L46.177,8.966H43.37l3.624,12.786h1.157l2.668-7.15.092-.571" transform="translate(375.887 808.701)" fill="#35383f"/>
    <path id="Shape-2" data-name="Shape" d="M23.8,19.4l-2.961,4.339-1.511-2.316,1.742-2.609a3.416,3.416,0,0,0,.216-3.49,3.631,3.631,0,0,0-6.585,0,3.357,3.357,0,0,0,.2,3.444s.971,1.421,1.774,2.625l1.311,1.9,1.974,3.027a1.14,1.14,0,0,0,.879.494,1.234,1.234,0,0,0,.895-.525l4.626-6.856H23.8V19.4Zm-5.814.108s-.771-1.173-1.28-1.992a1.47,1.47,0,1,1,2.561,0C18.769,18.333,17.982,19.506,17.982,19.506Z" transform="translate(370.601 803.905)" fill="#ececec"/>
    <path id="Pfad_2015" data-name="Pfad 2015" d="M11.745,23.6l-2.9-4.077s-.771-1.173-1.28-1.992a1.462,1.462,0,0,1,1.28-2.193,1.342,1.342,0,0,1,.432.062l1.018-1.869a3.687,3.687,0,0,0-1.434-.309,3.645,3.645,0,0,0-3.3,2.1,3.357,3.357,0,0,0,.2,3.444l5.074,7.521a1.2,1.2,0,0,0,.91.541,1.154,1.154,0,0,0,.895-.525l1.527-2.332-1.311-1.93-1.11,1.56Z" transform="translate(374.001 803.905)" fill="#ececec"/>
  </g>
</svg>