<svg xmlns="http://www.w3.org/2000/svg" width="19" height="19" viewBox="0 0 19 19">
    <g transform="translate(-1053 -5.5)">
        <path
            d="M9.5,18.157,8,19l-1.17-1.267-1.692.337L4.412,16.5,2.7,16.3l-.2-1.713L.93,13.867l.337-1.692L0,11,.843,9.5,0,8l1.267-1.17L.93,5.133,2.5,4.412,2.7,2.7l1.713-.2L5.133.93l1.692.337L8,0,9.5.844,11,0l1.17,1.267L13.867.93,14.588,2.5l1.713.2.2,1.713,1.567.722-.337,1.692L19,8l-.843,1.5L19,11l-1.267,1.17.337,1.692-1.567.721L16.3,16.3l-1.713.2-.722,1.567-1.692-.337L11,19Z"
            transform="translate(1053 5.5)" fill="#c7c2bd"/>
        <path
            d="M.882,12.17h.772V7.726L3.526,12.17H4.1V5.66H3.349V9.984L1.5,5.66H.882Zm4.26,0h2.54v-.651H6.05V9.132H7.36V8.489H6.05V6.335H7.665V5.66H5.142Zm4.967.072c1.415,0,1.728-.9,1.728-2.266V5.66h-.86v4.356c0,.844-.1,1.511-.868,1.511s-.868-.667-.868-1.511V5.66H8.373V9.976C8.373,11.342,8.686,12.242,10.109,12.242Z"
            transform="translate(1056.154 6.26)" fill="#625444"/>
    </g>
</svg>