<svg xmlns="http://www.w3.org/2000/svg" width="15.937" height="15.937" viewBox="0 0 15.937 15.937">
    <g id="phone" transform="translate(-2 -2)" fill="#c7c2bd">
        <path
            d="M17.591,14.157c-.5-.417-3.415-2.265-3.9-2.18-.228.04-.4.234-.868.791a6.652,6.652,0,0,1-.708.767,6.122,6.122,0,0,1-1.351-.5A8.367,8.367,0,0,1,6.9,9.171,6.123,6.123,0,0,1,6.4,7.82a6.652,6.652,0,0,1,.767-.708c.556-.466.75-.639.791-.868.085-.486-1.764-3.4-2.18-3.9C5.605,2.138,5.447,2,5.244,2,4.657,2,2,5.285,2,5.711c0,.035.057,3.455,4.376,7.849,4.395,4.319,7.815,4.376,7.849,4.376.426,0,3.711-2.657,3.711-3.244,0-.2-.138-.361-.345-.535Z"
            transform="translate(0 0)"/>
        <path d="M20.415,11.553h1.138A4.558,4.558,0,0,0,17,7V8.138a3.418,3.418,0,0,1,3.415,3.415Z"
            transform="translate(-6.463 -2.154)"/>
        <path d="M23.261,9.4H24.4A7.408,7.408,0,0,0,17,2V3.138A6.268,6.268,0,0,1,23.261,9.4Z"
            transform="translate(-6.463)"/>
    </g>
</svg>