<svg xmlns="http://www.w3.org/2000/svg" width="15.653" height="21.57" viewBox="0 0 15.653 21.57">
    <path
        d="M23.221,26.279a9.426,9.426,0,0,0-2.231-11.9l-.006,0,.015.038,0,.028a6.926,6.926,0,0,1-.254,5.527l-.6,1.208-.183-1.334a5.66,5.66,0,0,0-.991-2.507h-.083l-.044-.124a9.775,9.775,0,0,1-.857,4.03,5.648,5.648,0,0,0,.3,5.188l.645,1.082-1.16-.49a7.732,7.732,0,0,1-3.779-10.876,11.17,11.17,0,0,0,1.2-3.292l.216-1.119.551,1a5.732,5.732,0,0,1,.577,1.532l.012.013.013.087.012,0A14.115,14.115,0,0,0,19.355,6.68l.037-.715.6.391a10.72,10.72,0,0,1,4.675,7.033l.012.059.006.009.027-.038a3.585,3.585,0,0,0,.733-2.181V10.009l.742.98a12.356,12.356,0,0,1,2.489,7.954,9.381,9.381,0,0,1-4.9,7.9l-1.265.691Z"
        transform="translate(-13.034 -5.965)" fill="#c7c2bd"/>
</svg>