<svg xmlns="http://www.w3.org/2000/svg" width="25.63" height="20.829" viewBox="0 0 25.63 20.829">
  <path d="M369.761,5094.653a10.511,10.511,0,0,1-3.02.827,5.281,5.281,0,0,0,2.313-2.908,10.582,10.582,0,0,1-3.339,1.275,5.264,5.264,0,0,0-8.961,4.8,14.929,14.929,0,0,1-10.838-5.5,5.266,5.266,0,0,0,1.626,7.021,5.24,5.24,0,0,1-2.382-.658v.067a5.26,5.26,0,0,0,4.218,5.154,5.214,5.214,0,0,1-1.384.186,5.349,5.349,0,0,1-.991-.094,5.269,5.269,0,0,0,4.914,3.652,10.654,10.654,0,0,1-7.786,2.177,14.954,14.954,0,0,0,23.022-12.6c0-.228-.006-.454-.015-.68a10.687,10.687,0,0,0,2.623-2.721Zm0,0" transform="translate(-344.131 -5092.187)" fill="#35383f"/>
</svg>